<?xml version="1.0" encoding="utf-8"?>
<!DOCTYPE svg PUBLIC "-//W3C//DTD SVG 20010904//EN" "http://www.w3.org/TR/2001/REC-SVG-20010904/DTD/svg10.dtd">
<svg version="1.0" xmlns="http://www.w3.org/2000/svg" width="662pt" height="662pt" viewBox="0 0 662 662" style="" preserveAspectRatio="xMidYMid meet">
<g fill="#8564A9FF" stroke="#8564A9FF">
<path d="M 322.407 33.981 C 320.155 34.454 316.780 35.488 314.907 36.278 C 313.033 37.068 260.425 67.037 198.000 102.877 C 87.128 166.532 84.345 168.203 77.808 175.052 C 74.127 178.909 69.852 184.637 68.308 187.782 L 65.500 193.500 65.500 331.000 L 65.500 468.500 68.308 474.218 C 69.852 477.363 74.127 483.092 77.808 486.950 C 84.346 493.803 87.114 495.465 198.000 559.145 C 260.425 594.994 313.750 625.219 316.500 626.312 C 323.357 629.036 335.643 629.036 342.500 626.312 C 345.250 625.219 398.575 594.994 461.000 559.145 C 571.886 495.465 574.654 493.803 581.192 486.950 C 584.873 483.092 589.148 477.363 590.692 474.218 L 593.500 468.500 593.500 331.000 L 593.500 193.500 590.692 187.782 C 589.148 184.637 584.873 178.909 581.192 175.052 C 574.656 168.204 571.853 166.521 461.000 102.858 C 398.575 67.007 345.439 36.879 342.921 35.907 C 337.259 33.720 327.844 32.836 322.407 33.981 M 339.891 61.963 C 343.096 63.043 391.120 90.058 446.609 121.997 C 544.548 178.369 547.696 180.272 554.192 187.066 C 557.873 190.915 562.148 196.637 563.692 199.782 L 566.500 205.500 566.762 327.491 C 566.988 432.897 566.823 450.071 565.548 453.814 C 563.646 459.395 556.180 469.844 550.748 474.525 C 546.486 478.199 356.195 588.498 344.000 594.364 C 338.182 597.162 336.556 597.487 328.500 597.465 C 321.308 597.445 318.496 596.984 314.500 595.166 C 311.750 593.916 264.725 567.154 210.000 535.696 C 115.492 481.370 110.149 478.148 103.500 471.494 C 99.293 467.283 95.303 462.096 93.500 458.494 L 90.500 452.500 90.500 329.000 L 90.500 205.500 93.308 199.782 C 94.852 196.637 99.127 190.907 102.808 187.048 C 109.315 180.226 112.290 178.425 210.500 121.858 C 266.050 89.862 313.975 62.879 317.000 61.895 C 324.301 59.522 332.719 59.547 339.891 61.963 "/></g>
<g fill="#FFFFFFFF" stroke="#FFFFFFFF">
<path d="M 317.000 61.895 C 313.975 62.879 266.050 89.862 210.500 121.858 C 112.290 178.425 109.315 180.226 102.808 187.048 C 99.127 190.907 94.852 196.637 93.308 199.782 L 90.500 205.500 90.500 329.000 L 90.500 452.500 93.500 458.494 C 95.303 462.096 99.293 467.283 103.500 471.494 C 110.149 478.148 115.492 481.370 210.000 535.696 C 264.725 567.154 311.750 593.916 314.500 595.166 C 318.496 596.984 321.308 597.445 328.500 597.465 C 336.556 597.487 338.182 597.162 344.000 594.364 C 356.195 588.498 546.486 478.199 550.748 474.525 C 556.180 469.844 563.646 459.395 565.548 453.814 C 566.823 450.071 566.988 432.897 566.762 327.491 L 566.500 205.500 563.692 199.782 C 562.148 196.637 557.873 190.915 554.192 187.066 C 547.696 180.272 544.548 178.369 446.609 121.997 C 391.120 90.058 343.096 63.043 339.891 61.963 C 332.719 59.547 324.301 59.522 317.000 61.895 M 336.926 85.069 C 343.999 86.699 350.025 90.021 438.481 141.036 C 510.994 182.857 523.377 190.334 529.164 195.793 C 532.850 199.270 537.230 204.242 538.898 206.841 C 545.261 216.756 545.072 212.779 544.772 330.632 L 544.500 437.543 541.068 444.514 C 538.631 449.464 535.428 453.662 530.023 458.993 C 522.730 466.186 518.960 468.487 439.956 513.964 C 394.605 540.069 353.675 563.368 349.000 565.741 C 334.784 572.956 324.209 573.447 311.211 567.496 C 301.095 562.865 135.054 466.647 130.057 462.520 C 123.574 457.166 117.537 449.728 114.215 443.000 L 111.500 437.500 111.500 328.000 L 111.500 218.500 114.097 213.000 C 117.461 205.879 124.373 197.488 131.131 192.324 C 137.075 187.782 304.420 91.035 311.816 87.865 C 320.701 84.056 328.678 83.168 336.926 85.069 "/></g>
<g fill="#8564A9FF" stroke="#8564A9FF">
<path d="M 319.982 85.037 C 318.047 85.496 314.372 86.769 311.816 87.865 C 304.420 91.035 137.075 187.782 131.131 192.324 C 124.373 197.488 117.461 205.879 114.097 213.000 L 111.500 218.500 111.500 328.000 L 111.500 437.500 114.215 443.000 C 117.537 449.728 123.574 457.166 130.057 462.520 C 135.054 466.647 301.095 562.865 311.211 567.496 C 324.209 573.447 334.784 572.956 349.000 565.741 C 353.675 563.368 394.605 540.069 439.956 513.964 C 518.960 468.487 522.730 466.186 530.023 458.993 C 535.428 453.662 538.631 449.464 541.068 444.514 L 544.500 437.543 544.772 330.632 C 545.072 212.779 545.261 216.756 538.898 206.841 C 537.230 204.242 532.850 199.270 529.164 195.793 C 523.377 190.334 510.994 182.857 438.481 141.036 C 392.291 114.397 351.542 91.136 347.926 89.345 C 337.695 84.278 328.891 82.920 319.982 85.037 M 251.171 231.655 C 252.910 233.228 253.000 236.766 253.000 303.326 C 253.000 367.074 252.852 373.506 251.345 375.171 C 249.979 376.680 248.144 377.000 240.845 377.000 C 226.574 377.000 228.000 385.161 228.000 303.500 C 228.000 221.904 226.604 230.000 240.671 230.000 C 247.337 230.000 249.766 230.383 251.171 231.655 M 222.686 217.174 C 225.627 219.937 225.613 220.490 221.961 245.786 L 218.922 266.840 221.961 279.992 C 224.938 292.875 225.000 293.683 225.000 319.572 C 225.000 350.792 225.262 350.000 214.930 350.000 C 209.208 350.000 208.879 349.871 209.180 347.750 C 209.445 345.889 210.279 345.413 214.000 345.000 L 218.500 344.500 218.801 319.500 C 219.085 295.801 218.962 293.786 216.422 280.774 L 213.742 267.049 216.389 245.774 C 217.846 234.073 219.029 223.713 219.018 222.750 C 219.003 221.265 218.017 221.000 212.500 221.000 L 206.000 221.000 205.985 304.750 C 205.976 350.813 205.585 389.107 205.115 389.848 C 204.645 390.590 203.414 391.034 202.380 390.835 C 200.560 390.484 200.492 387.754 200.244 305.057 L 199.989 219.641 202.169 217.320 C 204.097 215.268 205.273 215.000 212.360 215.000 C 219.209 215.000 220.707 215.315 222.686 217.174 M 352.830 243.750 C 354.879 247.735 353.664 248.000 333.367 248.000 C 312.776 248.000 309.330 248.647 307.030 252.945 C 306.359 254.198 306.000 274.369 306.000 310.858 L 306.000 366.847 308.589 369.923 L 311.178 373.000 332.007 373.000 C 343.463 373.000 353.548 373.273 354.418 373.607 C 355.288 373.941 356.000 375.066 356.000 376.107 C 356.000 377.909 354.906 378.000 333.250 377.996 C 307.167 377.992 305.517 377.556 301.964 369.729 C 300.145 365.723 300.044 362.600 300.044 310.500 C 300.044 259.450 300.175 255.213 301.863 251.500 C 305.639 243.199 309.284 242.100 333.215 242.044 C 350.055 242.004 352.020 242.175 352.830 243.750 M 457.500 257.500 C 457.500 259.403 456.742 259.513 441.797 259.775 L 426.094 260.050 428.547 263.665 L 431.000 267.279 430.996 325.390 C 430.993 381.394 430.921 383.617 429.027 386.723 C 426.778 390.412 424.394 391.253 417.434 390.812 C 412.921 390.527 412.500 390.287 412.500 388.000 C 412.500 385.667 412.900 385.467 418.500 385.000 L 424.500 384.500 424.758 325.924 L 425.016 267.347 420.760 263.924 L 416.504 260.500 401.502 260.000 C 386.853 259.512 386.492 259.447 386.179 257.237 L 385.858 254.975 421.679 255.237 C 456.746 255.494 457.500 255.542 457.500 257.500 M 270.405 216.139 C 271.779 216.765 273.629 218.807 274.516 220.676 C 276.020 223.844 276.006 224.326 274.315 227.782 C 273.130 230.203 271.459 231.834 269.500 232.482 C 267.850 233.028 266.169 233.930 265.765 234.487 C 265.361 235.044 265.024 269.278 265.015 310.561 C 265.000 384.571 264.972 385.653 262.972 387.799 C 260.534 390.416 257.628 391.247 252.405 390.820 C 249.235 390.560 248.440 390.076 248.180 388.250 C 247.897 386.251 248.290 386.000 251.708 386.000 C 253.824 386.000 256.555 385.299 257.777 384.443 L 260.000 382.887 260.000 307.666 C 260.000 241.204 260.181 232.186 261.557 230.223 C 262.413 229.000 263.902 228.000 264.866 228.000 C 267.956 228.000 270.316 225.571 269.555 223.174 C 268.878 221.041 268.502 221.000 249.555 221.000 C 233.684 221.000 230.025 220.735 229.011 219.513 C 228.332 218.695 228.037 217.345 228.357 216.513 C 228.847 215.234 231.952 215.000 248.422 215.000 C 260.862 215.000 268.809 215.412 270.405 216.139 M 454.077 227.923 C 456.953 230.799 457.000 231.022 457.000 241.840 C 457.000 249.735 456.648 252.956 455.750 253.269 C 452.627 254.359 452.000 252.780 452.000 243.827 C 452.000 229.831 454.869 231.000 420.524 231.000 C 398.097 231.000 390.926 231.297 390.309 232.250 C 389.864 232.938 389.275 238.000 389.000 243.500 C 388.542 252.667 388.333 253.500 386.500 253.500 C 384.635 253.500 384.481 252.739 384.217 242.206 L 383.934 230.912 386.890 227.956 L 389.846 225.000 420.500 225.000 L 451.154 225.000 454.077 227.923 M 447.041 355.500 C 447.339 370.350 447.676 382.609 447.791 382.742 C 447.906 382.875 449.688 383.779 451.750 384.750 C 456.577 387.023 457.087 390.617 452.535 390.282 C 448.182 389.963 444.091 388.018 442.712 385.613 C 441.408 383.340 440.310 334.886 441.458 330.310 C 441.914 328.496 442.639 327.951 444.285 328.185 C 446.494 328.499 446.502 328.578 447.041 355.500 M 420.500 334.514 C 420.500 336.051 417.561 338.011 407.501 343.182 C 400.351 346.858 393.826 350.880 393.001 352.121 C 391.859 353.837 391.380 358.700 391.000 372.438 C 390.523 389.667 390.408 390.500 388.500 390.500 C 386.584 390.500 386.488 389.742 386.226 372.515 C 385.939 353.672 386.397 350.846 390.330 347.170 C 393.372 344.328 417.179 331.954 419.000 332.268 C 419.825 332.411 420.500 333.421 420.500 334.514 M 454.799 277.193 C 454.980 278.133 453.456 280.387 451.310 282.352 L 447.500 285.841 447.000 304.159 C 446.538 321.076 446.356 322.504 444.620 322.837 C 443.586 323.035 442.355 322.590 441.885 321.848 C 440.635 319.875 440.822 291.182 442.115 286.523 C 444.182 279.079 453.799 272.004 454.799 277.193 M 418.735 299.079 C 420.552 302.640 420.268 307.554 417.987 312.025 C 415.382 317.132 413.324 318.392 402.476 321.529 C 395.821 323.454 392.804 324.884 390.806 327.062 C 387.788 330.354 386.224 330.747 385.337 328.436 C 383.570 323.832 390.895 318.556 403.419 315.410 C 412.184 313.208 414.422 310.584 413.689 303.366 C 412.953 296.110 415.930 293.581 418.735 299.079 M 517.242 428.250 C 522.976 440.407 523.704 442.543 522.201 442.791 C 520.968 442.994 519.775 441.717 518.232 438.541 L 516.026 434.000 510.000 434.000 L 503.974 434.000 501.768 438.541 C 500.225 441.717 499.032 442.994 497.799 442.791 C 496.296 442.543 497.024 440.407 502.758 428.250 C 506.455 420.413 509.714 414.000 510.000 414.000 C 510.286 414.000 513.545 420.413 517.242 428.250 M 152.242 428.250 C 157.976 440.407 158.704 442.543 157.201 442.791 C 155.968 442.994 154.775 441.717 153.232 438.541 L 151.026 434.000 145.000 434.000 L 138.974 434.000 136.768 438.541 C 135.225 441.717 134.032 442.994 132.799 442.791 C 131.296 442.543 132.024 440.407 137.758 428.250 C 141.455 420.413 144.714 414.000 145.000 414.000 C 145.286 414.000 148.545 420.413 152.242 428.250 M 417.796 274.079 C 419.413 277.100 418.670 285.329 416.478 288.674 C 414.229 292.106 409.552 294.692 404.147 295.492 C 397.307 296.505 390.437 299.746 389.151 302.567 C 387.956 305.191 387.263 305.453 385.115 304.092 C 382.903 302.691 384.653 298.185 388.277 295.948 C 390.050 294.854 395.325 292.794 400.000 291.371 C 404.675 289.947 409.463 287.900 410.639 286.821 C 413.273 284.406 414.280 279.866 412.954 276.378 C 412.249 274.525 412.300 273.343 413.129 272.345 C 414.654 270.507 416.189 271.077 417.796 274.079 M 252.282 414.362 C 254.052 415.111 256.349 416.677 257.386 417.841 C 259.071 419.732 259.101 420.024 257.666 420.575 C 256.753 420.925 254.908 420.286 253.395 419.096 C 251.502 417.607 249.292 417.000 245.765 417.000 C 241.452 417.000 240.354 417.446 237.400 420.400 C 234.498 423.302 234.000 424.488 234.000 428.500 C 234.000 432.512 234.498 433.698 237.400 436.600 C 240.354 439.554 241.452 440.000 245.765 440.000 C 249.292 440.000 251.502 439.393 253.395 437.904 C 255.029 436.619 256.724 436.066 257.779 436.476 C 259.260 437.050 259.052 437.544 256.294 440.018 C 250.456 445.254 241.559 445.186 235.491 439.858 C 222.347 428.318 236.060 407.496 252.282 414.362 M 437.410 216.627 C 438.846 220.369 436.407 221.000 420.500 221.000 C 408.218 221.000 405.004 220.710 404.011 219.513 C 403.332 218.695 403.037 217.345 403.357 216.513 C 403.842 215.247 406.623 215.000 420.362 215.000 C 434.607 215.000 436.869 215.216 437.410 216.627 M 346.000 425.032 C 346.000 437.890 344.607 442.559 340.460 443.599 C 338.779 444.021 336.502 443.656 334.318 442.615 C 330.745 440.911 330.240 438.231 333.608 438.845 C 334.648 439.035 336.850 439.260 338.500 439.345 L 341.500 439.500 341.780 426.750 C 342.042 414.826 342.187 414.000 344.030 414.000 C 345.871 414.000 346.000 414.722 346.000 425.032 M 424.000 428.500 C 424.000 442.333 423.908 443.000 422.000 443.000 C 420.092 443.000 420.000 442.333 420.000 428.500 C 420.000 414.667 420.092 414.000 422.000 414.000 C 423.908 414.000 424.000 414.667 424.000 428.500 "/></g>
<g fill="#FFFFFFFF" stroke="#FFFFFFFF">
<path d="M 230.000 232.000 C 228.038 233.962 228.000 235.333 228.000 303.500 C 228.000 385.161 226.574 377.000 240.845 377.000 C 248.144 377.000 249.979 376.680 251.345 375.171 C 252.852 373.506 253.000 367.074 253.000 303.326 C 253.000 236.766 252.910 233.228 251.171 231.655 C 249.766 230.383 247.337 230.000 240.671 230.000 C 233.333 230.000 231.692 230.308 230.000 232.000 M 247.757 303.250 L 248.014 371.000 241.007 371.000 L 234.000 371.000 234.000 302.954 L 234.000 234.909 240.750 235.204 L 247.500 235.500 247.757 303.250 "/></g>
<g fill="#FFFFFFFF" stroke="#FFFFFFFF">
<path d="M 202.169 217.320 L 199.989 219.641 200.244 305.057 C 200.492 387.754 200.560 390.484 202.380 390.835 C 203.414 391.034 204.645 390.590 205.115 389.848 C 205.585 389.107 205.976 350.813 205.985 304.750 L 206.000 221.000 212.500 221.000 C 218.017 221.000 219.003 221.265 219.018 222.750 C 219.029 223.713 217.846 234.073 216.389 245.774 L 213.742 267.049 216.422 280.774 C 218.962 293.786 219.085 295.801 218.801 319.500 L 218.500 344.500 214.000 345.000 C 210.279 345.413 209.445 345.889 209.180 347.750 C 208.879 349.871 209.208 350.000 214.930 350.000 C 225.262 350.000 225.000 350.792 225.000 319.572 C 225.000 293.683 224.938 292.875 221.961 279.992 L 218.922 266.840 221.961 245.786 C 225.613 220.490 225.627 219.937 222.686 217.174 C 220.707 215.315 219.209 215.000 212.360 215.000 C 205.273 215.000 204.097 215.268 202.169 217.320 "/></g>
<g fill="#8564A9FF" stroke="#8564A9FF">
<path d="M 234.000 302.954 L 234.000 371.000 241.007 371.000 L 248.014 371.000 247.757 303.250 L 247.500 235.500 240.750 235.204 L 234.000 234.909 234.000 302.954 "/></g>
<g fill="#FFFFFFFF" stroke="#FFFFFFFF">
<path d="M 310.741 243.429 C 305.704 245.227 304.021 246.756 301.863 251.500 C 300.175 255.213 300.044 259.450 300.044 310.500 C 300.044 362.600 300.145 365.723 301.964 369.729 C 305.517 377.556 307.167 377.992 333.250 377.996 C 354.906 378.000 356.000 377.909 356.000 376.107 C 356.000 375.066 355.288 373.941 354.418 373.607 C 353.548 373.273 343.463 373.000 332.007 373.000 L 311.178 373.000 308.589 369.923 L 306.000 366.847 306.000 310.858 C 306.000 274.369 306.359 254.198 307.030 252.945 C 309.330 248.647 312.776 248.000 333.367 248.000 C 353.664 248.000 354.879 247.735 352.830 243.750 C 352.020 242.175 350.055 242.004 333.215 242.044 C 320.197 242.074 313.356 242.496 310.741 243.429 "/></g>
<g fill="#FFFFFFFF" stroke="#FFFFFFFF">
<path d="M 386.179 257.237 C 386.492 259.447 386.853 259.512 401.502 260.000 L 416.504 260.500 420.760 263.924 L 425.016 267.347 424.758 325.924 L 424.500 384.500 418.500 385.000 C 412.900 385.467 412.500 385.667 412.500 388.000 C 412.500 390.287 412.921 390.527 417.434 390.812 C 424.394 391.253 426.778 390.412 429.027 386.723 C 430.921 383.617 430.993 381.394 430.996 325.390 L 431.000 267.279 428.547 263.665 L 426.094 260.050 441.797 259.775 C 456.742 259.513 457.500 259.403 457.500 257.500 C 457.500 255.542 456.746 255.494 421.679 255.237 L 385.858 254.975 386.179 257.237 "/></g>
<g fill="#FFFFFFFF" stroke="#FFFFFFFF">
<path d="M 228.357 216.513 C 228.037 217.345 228.332 218.695 229.011 219.513 C 230.025 220.735 233.684 221.000 249.555 221.000 C 268.502 221.000 268.878 221.041 269.555 223.174 C 270.316 225.571 267.956 228.000 264.866 228.000 C 263.902 228.000 262.413 229.000 261.557 230.223 C 260.181 232.186 260.000 241.204 260.000 307.666 L 260.000 382.887 257.777 384.443 C 256.555 385.299 253.824 386.000 251.708 386.000 C 248.290 386.000 247.897 386.251 248.180 388.250 C 248.440 390.076 249.235 390.560 252.405 390.820 C 257.628 391.247 260.534 390.416 262.972 387.799 C 264.972 385.653 265.000 384.571 265.015 310.561 C 265.024 269.278 265.361 235.044 265.765 234.487 C 266.169 233.930 267.850 233.028 269.500 232.482 C 271.459 231.834 273.130 230.203 274.315 227.782 C 276.006 224.326 276.020 223.844 274.516 220.676 C 273.629 218.807 271.779 216.765 270.405 216.139 C 268.809 215.412 260.862 215.000 248.422 215.000 C 231.952 215.000 228.847 215.234 228.357 216.513 "/></g>
<g fill="#FFFFFFFF" stroke="#FFFFFFFF">
<path d="M 386.890 227.956 L 383.934 230.912 384.217 242.206 C 384.481 252.739 384.635 253.500 386.500 253.500 C 388.333 253.500 388.542 252.667 389.000 243.500 C 389.275 238.000 389.864 232.938 390.309 232.250 C 390.926 231.297 398.097 231.000 420.524 231.000 C 454.869 231.000 452.000 229.831 452.000 243.827 C 452.000 252.780 452.627 254.359 455.750 253.269 C 456.648 252.956 457.000 249.735 457.000 241.840 C 457.000 231.022 456.953 230.799 454.077 227.923 L 451.154 225.000 420.500 225.000 L 389.846 225.000 386.890 227.956 "/></g>
<g fill="#FFFFFFFF" stroke="#FFFFFFFF">
<path d="M 441.458 330.310 C 440.310 334.886 441.408 383.340 442.712 385.613 C 444.091 388.018 448.182 389.963 452.535 390.282 C 457.087 390.617 456.577 387.023 451.750 384.750 C 449.688 383.779 447.906 382.875 447.791 382.742 C 447.676 382.609 447.339 370.350 447.041 355.500 C 446.502 328.578 446.494 328.499 444.285 328.185 C 442.639 327.951 441.914 328.496 441.458 330.310 "/></g>
<g fill="#FFFFFFFF" stroke="#FFFFFFFF">
<path d="M 405.000 338.576 C 398.125 342.188 391.524 346.055 390.330 347.170 C 386.397 350.846 385.939 353.672 386.226 372.515 C 386.488 389.742 386.584 390.500 388.500 390.500 C 390.408 390.500 390.523 389.667 391.000 372.438 C 391.380 358.700 391.859 353.837 393.001 352.121 C 393.826 350.880 400.351 346.858 407.501 343.182 C 417.561 338.011 420.500 336.051 420.500 334.514 C 420.500 333.421 419.825 332.411 419.000 332.268 C 418.175 332.126 411.875 334.964 405.000 338.576 "/></g>
<g fill="#FFFFFFFF" stroke="#FFFFFFFF">
<path d="M 447.073 278.692 C 444.902 280.862 442.737 284.282 442.115 286.523 C 440.822 291.182 440.635 319.875 441.885 321.848 C 442.355 322.590 443.586 323.035 444.620 322.837 C 446.356 322.504 446.538 321.076 447.000 304.159 L 447.500 285.841 451.310 282.352 C 453.456 280.387 454.980 278.133 454.799 277.193 C 454.207 274.119 451.030 274.735 447.073 278.692 "/></g>
<g fill="#FFFFFFFF" stroke="#FFFFFFFF">
<path d="M 414.297 297.103 C 413.602 297.798 413.369 300.206 413.689 303.366 C 414.422 310.584 412.184 313.208 403.419 315.410 C 390.895 318.556 383.570 323.832 385.337 328.436 C 386.224 330.747 387.788 330.354 390.806 327.062 C 392.804 324.884 395.821 323.454 402.476 321.529 C 413.324 318.392 415.382 317.132 417.987 312.025 C 420.268 307.554 420.552 302.640 418.735 299.079 C 417.266 296.199 415.837 295.563 414.297 297.103 "/></g>
<g fill="#FFFFFFFF" stroke="#FFFFFFFF">
<path d="M 502.758 428.250 C 497.024 440.407 496.296 442.543 497.799 442.791 C 499.032 442.994 500.225 441.717 501.768 438.541 L 503.974 434.000 510.000 434.000 L 516.026 434.000 518.232 438.541 C 519.775 441.717 520.968 442.994 522.201 442.791 C 523.704 442.543 522.976 440.407 517.242 428.250 C 513.545 420.413 510.286 414.000 510.000 414.000 C 509.714 414.000 506.455 420.413 502.758 428.250 M 512.315 425.534 C 513.242 427.478 514.000 429.278 514.000 429.534 C 514.000 429.790 512.200 430.000 510.000 430.000 C 507.800 430.000 506.000 429.790 506.000 429.534 C 506.000 428.450 509.424 422.000 510.000 422.000 C 510.346 422.000 511.388 423.590 512.315 425.534 "/></g>
<g fill="#FFFFFFFF" stroke="#FFFFFFFF">
<path d="M 137.758 428.250 C 132.024 440.407 131.296 442.543 132.799 442.791 C 134.032 442.994 135.225 441.717 136.768 438.541 L 138.974 434.000 145.000 434.000 L 151.026 434.000 153.232 438.541 C 154.775 441.717 155.968 442.994 157.201 442.791 C 158.704 442.543 157.976 440.407 152.242 428.250 C 148.545 420.413 145.286 414.000 145.000 414.000 C 144.714 414.000 141.455 420.413 137.758 428.250 M 147.315 425.534 C 148.242 427.478 149.000 429.278 149.000 429.534 C 149.000 429.790 147.200 430.000 145.000 430.000 C 142.800 430.000 141.000 429.790 141.000 429.534 C 141.000 428.450 144.424 422.000 145.000 422.000 C 145.346 422.000 146.388 423.590 147.315 425.534 "/></g>
<g fill="#FFFFFFFF" stroke="#FFFFFFFF">
<path d="M 413.129 272.345 C 412.300 273.343 412.249 274.525 412.954 276.378 C 414.280 279.866 413.273 284.406 410.639 286.821 C 409.463 287.900 404.675 289.947 400.000 291.371 C 395.325 292.794 390.050 294.854 388.277 295.948 C 384.653 298.185 382.903 302.691 385.115 304.092 C 387.263 305.453 387.956 305.191 389.151 302.567 C 390.437 299.746 397.307 296.505 404.147 295.492 C 413.093 294.167 417.706 289.655 418.578 281.376 C 419.318 274.348 416.013 268.870 413.129 272.345 "/></g>
<g fill="#FFFFFFFF" stroke="#FFFFFFFF">
<path d="M 239.450 414.407 C 235.322 416.205 231.224 421.291 230.410 425.626 C 227.750 439.808 245.514 449.685 256.294 440.018 C 259.052 437.544 259.260 437.050 257.779 436.476 C 256.724 436.066 255.029 436.619 253.395 437.904 C 251.502 439.393 249.292 440.000 245.765 440.000 C 241.452 440.000 240.354 439.554 237.400 436.600 C 234.498 433.698 234.000 432.512 234.000 428.500 C 234.000 424.488 234.498 423.302 237.400 420.400 C 240.354 417.446 241.452 417.000 245.765 417.000 C 249.292 417.000 251.502 417.607 253.395 419.096 C 254.908 420.286 256.753 420.925 257.666 420.575 C 259.101 420.024 259.071 419.732 257.386 417.841 C 253.349 413.310 245.444 411.796 239.450 414.407 "/></g>
<g fill="#FFFFFFFF" stroke="#FFFFFFFF">
<path d="M 403.357 216.513 C 403.037 217.345 403.332 218.695 404.011 219.513 C 405.004 220.710 408.218 221.000 420.500 221.000 C 436.407 221.000 438.846 220.369 437.410 216.627 C 436.869 215.216 434.607 215.000 420.362 215.000 C 406.623 215.000 403.842 215.247 403.357 216.513 "/></g>
<g fill="#FFFFFFFF" stroke="#FFFFFFFF">
<path d="M 341.780 426.750 L 341.500 439.500 338.500 439.345 C 336.850 439.260 334.648 439.035 333.608 438.845 C 330.240 438.231 330.745 440.911 334.318 442.615 C 336.502 443.656 338.779 444.021 340.460 443.599 C 344.607 442.559 346.000 437.890 346.000 425.032 C 346.000 414.722 345.871 414.000 344.030 414.000 C 342.187 414.000 342.042 414.826 341.780 426.750 "/></g>
<g fill="#FFFFFFFF" stroke="#FFFFFFFF">
<path d="M 420.000 428.500 C 420.000 442.333 420.092 443.000 422.000 443.000 C 423.908 443.000 424.000 442.333 424.000 428.500 C 424.000 414.667 423.908 414.000 422.000 414.000 C 420.092 414.000 420.000 414.667 420.000 428.500 "/></g>
<g fill="#8564A9FF" stroke="#8564A9FF">
<path d="M 507.685 425.534 C 506.758 427.478 506.000 429.278 506.000 429.534 C 506.000 429.790 507.800 430.000 510.000 430.000 C 512.200 430.000 514.000 429.790 514.000 429.534 C 514.000 428.450 510.576 422.000 510.000 422.000 C 509.654 422.000 508.612 423.590 507.685 425.534 "/></g>
<g fill="#8564A9FF" stroke="#8564A9FF">
<path d="M 142.685 425.534 C 141.758 427.478 141.000 429.278 141.000 429.534 C 141.000 429.790 142.800 430.000 145.000 430.000 C 147.200 430.000 149.000 429.790 149.000 429.534 C 149.000 428.450 145.576 422.000 145.000 422.000 C 144.654 422.000 143.612 423.590 142.685 425.534 "/></g>
</svg>
